<mxfile host="app.diagrams.net" modified="2022-10-03T12:20:20.272Z" agent="5.0 (Windows NT 10.0; Win64; x64) AppleWebKit/537.36 (KHTML, like Gecko) Chrome/106.0.0.0 Safari/537.36" etag="TniVtCAJLqVJz_xyG1LE" version="20.2.2" type="github">
  <diagram name="Page-1" id="97916047-d0de-89f5-080d-49f4d83e522f">
    <mxGraphModel dx="5058" dy="826" grid="1" gridSize="10" guides="1" tooltips="1" connect="1" arrows="1" fold="1" page="1" pageScale="1.5" pageWidth="1169" pageHeight="827" background="none" math="0" shadow="0">
      <root>
        <mxCell id="0" />
        <mxCell id="1" parent="0" />
        <mxCell id="2" value="APP DEL VIAJERO" style="rounded=1;fillColor=#10739E;strokeColor=none;shadow=1;gradientColor=none;fontStyle=1;fontColor=#FFFFFF;fontSize=14;" parent="1" vertex="1">
          <mxGeometry x="-2118" y="250" width="200" height="60" as="geometry" />
        </mxCell>
        <mxCell id="3" value="HOME" style="rounded=1;fillColor=#10739E;strokeColor=none;shadow=1;gradientColor=none;fontStyle=1;fontColor=#FFFFFF;fontSize=14;" parent="1" vertex="1">
          <mxGeometry x="-2128" y="390" width="220" height="60" as="geometry" />
        </mxCell>
        <mxCell id="4" value="Sobre nosotros" style="rounded=1;fillColor=#10739E;strokeColor=none;shadow=1;gradientColor=none;fontStyle=1;fontColor=#FFFFFF;fontSize=14;" parent="1" vertex="1">
          <mxGeometry x="-2660" y="500" width="200" height="60" as="geometry" />
        </mxCell>
        <mxCell id="5" value="Galeria principal" style="rounded=1;fillColor=#10739E;strokeColor=none;shadow=1;gradientColor=none;fontStyle=1;fontColor=#FFFFFF;fontSize=14;" parent="1" vertex="1">
          <mxGeometry x="-2380" y="500" width="200" height="60" as="geometry" />
        </mxCell>
        <mxCell id="6" value="Lugares / mapa" style="rounded=1;fillColor=#10739E;strokeColor=none;shadow=1;gradientColor=none;fontStyle=1;fontColor=#FFFFFF;fontSize=14;" parent="1" vertex="1">
          <mxGeometry x="-1918" y="500" width="200" height="60" as="geometry" />
        </mxCell>
        <mxCell id="8" value="Lugares para visitar" style="rounded=1;fillColor=#10739E;strokeColor=none;shadow=1;gradientColor=none;fontStyle=1;fontColor=#FFFFFF;fontSize=14;" parent="1" vertex="1">
          <mxGeometry x="-2380" y="640" width="200" height="60" as="geometry" />
        </mxCell>
        <mxCell id="9" value="Imagenes y reseÃ±as" style="rounded=1;fillColor=#10739E;strokeColor=none;shadow=1;gradientColor=none;fontStyle=1;fontColor=#FFFFFF;fontSize=14;" parent="1" vertex="1">
          <mxGeometry x="-2380" y="720" width="200" height="60" as="geometry" />
        </mxCell>
        <mxCell id="10" value="Votacion" style="rounded=1;fillColor=#10739E;strokeColor=none;shadow=1;gradientColor=none;fontStyle=1;fontColor=#FFFFFF;fontSize=14;" parent="1" vertex="1">
          <mxGeometry x="-2380" y="810" width="200" height="60" as="geometry" />
        </mxCell>
        <mxCell id="11" value="Costos" style="rounded=1;fillColor=#10739E;strokeColor=none;shadow=1;gradientColor=none;fontStyle=1;fontColor=#FFFFFF;fontSize=14;" parent="1" vertex="1">
          <mxGeometry x="-2380" y="900" width="200" height="60" as="geometry" />
        </mxCell>
        <mxCell id="12" value="Servicios del lugar" style="rounded=1;fillColor=#10739E;strokeColor=none;shadow=1;gradientColor=none;fontStyle=1;fontColor=#FFFFFF;fontSize=14;" parent="1" vertex="1">
          <mxGeometry x="-2380" y="990" width="200" height="60" as="geometry" />
        </mxCell>
        <mxCell id="18" value="Perfil de usuario" style="rounded=1;fillColor=#10739E;strokeColor=none;shadow=1;gradientColor=none;fontStyle=1;fontColor=#FFFFFF;fontSize=14;" parent="1" vertex="1">
          <mxGeometry x="-1480" y="660" width="200" height="60" as="geometry" />
        </mxCell>
        <mxCell id="19" value="Favoritos" style="rounded=1;fillColor=#10739E;strokeColor=none;shadow=1;gradientColor=none;fontStyle=1;fontColor=#FFFFFF;fontSize=14;" parent="1" vertex="1">
          <mxGeometry x="-1470" y="770" width="200" height="60" as="geometry" />
        </mxCell>
        <mxCell id="20" value="Foro" style="rounded=1;fillColor=#10739E;strokeColor=none;shadow=1;gradientColor=none;fontStyle=1;fontColor=#FFFFFF;fontSize=14;" parent="1" vertex="1">
          <mxGeometry x="-1470" y="860" width="200" height="60" as="geometry" />
        </mxCell>
        <mxCell id="23" value="Buscar por provincias" style="rounded=1;fillColor=#10739E;strokeColor=none;shadow=1;gradientColor=none;fontStyle=1;fontColor=#FFFFFF;fontSize=14;" parent="1" vertex="1">
          <mxGeometry x="-1920" y="660" width="200" height="60" as="geometry" />
        </mxCell>
        <mxCell id="29" value="" style="edgeStyle=elbowEdgeStyle;elbow=vertical;strokeWidth=4;endArrow=block;endFill=1;fontStyle=1;strokeColor=#23445D;" parent="1" source="2" target="3" edge="1">
          <mxGeometry x="-2768" y="210" width="100" height="100" as="geometry">
            <mxPoint x="-2768" y="310" as="sourcePoint" />
            <mxPoint x="-2668" y="210" as="targetPoint" />
          </mxGeometry>
        </mxCell>
        <mxCell id="30" value="" style="edgeStyle=elbowEdgeStyle;elbow=vertical;strokeWidth=4;endArrow=block;endFill=1;fontStyle=1;strokeColor=#23445D;" parent="1" source="3" target="5" edge="1">
          <mxGeometry x="-2768" y="210" width="100" height="100" as="geometry">
            <mxPoint x="-2768" y="310" as="sourcePoint" />
            <mxPoint x="-2668" y="210" as="targetPoint" />
          </mxGeometry>
        </mxCell>
        <mxCell id="31" value="" style="edgeStyle=elbowEdgeStyle;elbow=vertical;strokeWidth=4;endArrow=block;endFill=1;fontStyle=1;strokeColor=#23445D;" parent="1" source="3" target="4" edge="1">
          <mxGeometry x="-2768" y="210" width="100" height="100" as="geometry">
            <mxPoint x="-2768" y="310" as="sourcePoint" />
            <mxPoint x="-2668" y="210" as="targetPoint" />
          </mxGeometry>
        </mxCell>
        <mxCell id="32" value="" style="edgeStyle=elbowEdgeStyle;elbow=vertical;strokeWidth=4;endArrow=block;endFill=1;fontStyle=1;strokeColor=#23445D;" parent="1" source="3" target="6" edge="1">
          <mxGeometry x="-2768" y="210" width="100" height="100" as="geometry">
            <mxPoint x="-2768" y="310" as="sourcePoint" />
            <mxPoint x="-2668" y="210" as="targetPoint" />
          </mxGeometry>
        </mxCell>
        <mxCell id="34" value="" style="edgeStyle=elbowEdgeStyle;elbow=vertical;strokeWidth=4;endArrow=block;endFill=1;fontStyle=1;strokeColor=#23445D;exitX=0.5;exitY=1;exitDx=0;exitDy=0;" parent="1" source="5" target="8" edge="1">
          <mxGeometry x="-2768" y="210" width="100" height="100" as="geometry">
            <mxPoint x="-2768" y="310" as="sourcePoint" />
            <mxPoint x="-2668" y="210" as="targetPoint" />
            <Array as="points">
              <mxPoint x="-2270" y="600.5" />
              <mxPoint x="-2238" y="600" />
            </Array>
          </mxGeometry>
        </mxCell>
        <mxCell id="37" value="" style="edgeStyle=elbowEdgeStyle;elbow=vertical;strokeWidth=4;endArrow=block;endFill=1;fontStyle=1;strokeColor=#23445D;exitX=0.5;exitY=1;exitDx=0;exitDy=0;" parent="1" source="6" target="23" edge="1">
          <mxGeometry x="-2768" y="210" width="100" height="100" as="geometry">
            <mxPoint x="-2768" y="310" as="sourcePoint" />
            <mxPoint x="-2668" y="210" as="targetPoint" />
            <Array as="points">
              <mxPoint x="-1818" y="600" />
            </Array>
          </mxGeometry>
        </mxCell>
        <mxCell id="38" value="" style="edgeStyle=elbowEdgeStyle;elbow=vertical;strokeWidth=4;endArrow=block;endFill=1;fontStyle=1;strokeColor=#23445D;" parent="1" source="8" target="9" edge="1">
          <mxGeometry x="-2600" y="180" width="100" height="100" as="geometry">
            <mxPoint x="-2600" y="280" as="sourcePoint" />
            <mxPoint x="-2500" y="180" as="targetPoint" />
          </mxGeometry>
        </mxCell>
        <mxCell id="39" value="" style="edgeStyle=elbowEdgeStyle;elbow=vertical;strokeWidth=4;endArrow=block;endFill=1;fontStyle=1;strokeColor=#23445D;" parent="1" source="9" target="10" edge="1">
          <mxGeometry x="-2600" y="190" width="100" height="100" as="geometry">
            <mxPoint x="-2600" y="290" as="sourcePoint" />
            <mxPoint x="-2500" y="190" as="targetPoint" />
          </mxGeometry>
        </mxCell>
        <mxCell id="40" value="" style="edgeStyle=elbowEdgeStyle;elbow=vertical;strokeWidth=4;endArrow=block;endFill=1;fontStyle=1;strokeColor=#23445D;" parent="1" source="10" target="11" edge="1">
          <mxGeometry x="-2600" y="200" width="100" height="100" as="geometry">
            <mxPoint x="-2600" y="300" as="sourcePoint" />
            <mxPoint x="-2500" y="200" as="targetPoint" />
          </mxGeometry>
        </mxCell>
        <mxCell id="41" value="" style="edgeStyle=elbowEdgeStyle;elbow=vertical;strokeWidth=4;endArrow=block;endFill=1;fontStyle=1;strokeColor=#23445D;" parent="1" source="11" target="12" edge="1">
          <mxGeometry x="-2600" y="210" width="100" height="100" as="geometry">
            <mxPoint x="-2600" y="310" as="sourcePoint" />
            <mxPoint x="-2500" y="210" as="targetPoint" />
          </mxGeometry>
        </mxCell>
        <mxCell id="46" value="" style="edgeStyle=elbowEdgeStyle;elbow=vertical;strokeWidth=4;endArrow=block;endFill=1;fontStyle=1;strokeColor=#23445D;" parent="1" source="18" target="19" edge="1">
          <mxGeometry x="-2718" y="210" width="100" height="100" as="geometry">
            <mxPoint x="-2718" y="310" as="sourcePoint" />
            <mxPoint x="-2618" y="210" as="targetPoint" />
          </mxGeometry>
        </mxCell>
        <mxCell id="47" value="" style="edgeStyle=elbowEdgeStyle;elbow=vertical;strokeWidth=4;endArrow=block;endFill=1;fontStyle=1;strokeColor=#23445D;" parent="1" source="19" target="20" edge="1">
          <mxGeometry x="-2718" y="220" width="100" height="100" as="geometry">
            <mxPoint x="-2718" y="320" as="sourcePoint" />
            <mxPoint x="-2618" y="220" as="targetPoint" />
          </mxGeometry>
        </mxCell>
        <mxCell id="55" value="" style="edgeStyle=elbowEdgeStyle;elbow=vertical;strokeWidth=4;endArrow=block;endFill=1;fontStyle=1;strokeColor=#23445D;" parent="1" target="18" edge="1">
          <mxGeometry x="-2768" y="210" width="100" height="100" as="geometry">
            <mxPoint x="-1510" y="560" as="sourcePoint" />
            <mxPoint x="-2668" y="210" as="targetPoint" />
            <Array as="points">
              <mxPoint x="-1848" y="600" />
            </Array>
          </mxGeometry>
        </mxCell>
        <mxCell id="y-lX1e11rZeuyW-YSD9c-55" value="" style="edgeStyle=elbowEdgeStyle;elbow=vertical;strokeWidth=4;endArrow=block;endFill=1;fontStyle=1;strokeColor=#23445D;" edge="1" parent="1">
          <mxGeometry x="-2758" y="220" width="100" height="100" as="geometry">
            <mxPoint x="-2020" y="454.5" as="sourcePoint" />
            <mxPoint x="-1520" y="494.5" as="targetPoint" />
          </mxGeometry>
        </mxCell>
        <mxCell id="y-lX1e11rZeuyW-YSD9c-56" value="Login / Registro" style="rounded=1;fillColor=#10739E;strokeColor=none;shadow=1;gradientColor=none;fontStyle=1;fontColor=#FFFFFF;fontSize=14;" vertex="1" parent="1">
          <mxGeometry x="-1620" y="494.5" width="200" height="60" as="geometry" />
        </mxCell>
        <mxCell id="y-lX1e11rZeuyW-YSD9c-57" value="" style="edgeStyle=elbowEdgeStyle;elbow=vertical;strokeWidth=4;endArrow=block;endFill=1;fontStyle=1;strokeColor=#23445D;exitX=0.5;exitY=1;exitDx=0;exitDy=0;entryX=0.7;entryY=0;entryDx=0;entryDy=0;entryPerimeter=0;" edge="1" parent="1">
          <mxGeometry x="-3060" y="210" width="100" height="100" as="geometry">
            <mxPoint x="-2572" y="560" as="sourcePoint" />
            <mxPoint x="-2620" y="670" as="targetPoint" />
            <Array as="points">
              <mxPoint x="-2562" y="600.5" />
              <mxPoint x="-2530" y="600" />
            </Array>
          </mxGeometry>
        </mxCell>
        <mxCell id="y-lX1e11rZeuyW-YSD9c-61" value="Quienes somos" style="rounded=1;fillColor=#10739E;strokeColor=none;shadow=1;gradientColor=none;fontStyle=1;fontColor=#FFFFFF;fontSize=14;" vertex="1" parent="1">
          <mxGeometry x="-2720" y="670" width="200" height="60" as="geometry" />
        </mxCell>
        <mxCell id="y-lX1e11rZeuyW-YSD9c-62" value="Mision / vision" style="rounded=1;fillColor=#10739E;strokeColor=none;shadow=1;gradientColor=none;fontStyle=1;fontColor=#FFFFFF;fontSize=14;" vertex="1" parent="1">
          <mxGeometry x="-2720" y="780" width="200" height="60" as="geometry" />
        </mxCell>
        <mxCell id="y-lX1e11rZeuyW-YSD9c-64" value="" style="edgeStyle=elbowEdgeStyle;elbow=vertical;strokeWidth=4;endArrow=block;endFill=1;fontStyle=1;strokeColor=#23445D;entryX=0.5;entryY=0;entryDx=0;entryDy=0;exitX=0.705;exitY=1.081;exitDx=0;exitDy=0;exitPerimeter=0;" edge="1" parent="1" source="y-lX1e11rZeuyW-YSD9c-61" target="y-lX1e11rZeuyW-YSD9c-62">
          <mxGeometry x="-2718" y="220" width="100" height="100" as="geometry">
            <mxPoint x="-2398" y="740" as="sourcePoint" />
            <mxPoint x="-2398" y="760" as="targetPoint" />
            <Array as="points">
              <mxPoint x="-2650" y="760" />
            </Array>
          </mxGeometry>
        </mxCell>
        <mxCell id="y-lX1e11rZeuyW-YSD9c-65" value="Carrito" style="rounded=1;fillColor=#10739E;strokeColor=none;shadow=1;gradientColor=none;fontStyle=1;fontColor=#FFFFFF;fontSize=14;" vertex="1" parent="1">
          <mxGeometry x="-1470" y="950" width="200" height="60" as="geometry" />
        </mxCell>
        <mxCell id="y-lX1e11rZeuyW-YSD9c-66" value="" style="edgeStyle=elbowEdgeStyle;elbow=vertical;strokeWidth=4;endArrow=block;endFill=1;fontStyle=1;strokeColor=#23445D;entryX=0.5;entryY=0;entryDx=0;entryDy=0;" edge="1" parent="1" target="y-lX1e11rZeuyW-YSD9c-65">
          <mxGeometry x="-2708" y="230" width="100" height="100" as="geometry">
            <mxPoint x="-1370" y="920" as="sourcePoint" />
            <mxPoint x="-1360" y="870" as="targetPoint" />
          </mxGeometry>
        </mxCell>
      </root>
    </mxGraphModel>
  </diagram>
</mxfile>
